<svg xmlns="http://www.w3.org/2000/svg">

  <symbol id="coins" viewBox="0 0 250 250">
    <title>coin</title><path
      d="M.4,125a125,125,0,1,1,125,125A125,125,0,0,1,.4,125Zm168.6-10.9c1-59.8-83.6-61.4-87.5,0C110.8,125.2,140,125.2,168.9,114.1Zm-86.4-8.8c-11-6.4-29.4-8.4-48.8-9.7,10.7,29.6,48.7,38.6,94.4,41.8,20.4-1.6,78.6-6,89.2-43.8a224.7,224.7,0,0,0-48.5,9.4M33.4,95.5c2.6,13.6,13,36,13,36C81,209,207.6,195.9,217,93.6"
      transform="translate(-0.4)"/>
  </symbol>

  <symbol id="dog" data-name="Layer 3" viewBox="0 0 250 250">
    <title>dog</title><path
      d="M0,125A125,125,0,1,1,125,250,125,125,0,0,1,0,125Zm100.6-24.2c-7.5,11.3-10,25.1-8.8,40.7v.4c4,13.9,11,25.3,22.8,32.7h.2c16.7,8.3,33.6,9.6,50.8,3l.3-.2c16.9-10.6,28.1-24.9,29.4-45.7a2.1,2.1,0,0,0,0-.3,67.7,67.7,0,0,0-9.9-32.4,1.7,1.7,0,0,1-.3-.9c.1-9.2-1.6-17.6-7.7-24a1.7,1.7,0,0,0-1.8-.4c-5.2,1.9-10,5.6-14.6,10.4a1.7,1.7,0,0,1-1.2.5H126.3a1.6,1.6,0,0,1-1.4-.9c-1.9-3.4-16.3-12.3-17.6-10.4-6.1,7-7.9,15.9-6.5,26.1A1.7,1.7,0,0,1,100.6,100.8Zm3.6,66.1c-14.6,19-25.7,38.5-32.9,58.7a1.8,1.8,0,0,0,.6,2c32.4,24.6,65,29.5,97.8,11.9a1.8,1.8,0,0,0,.9-1.2c4.6-22.5,5-43.8-4.9-60.7M70.9,226.8H64a1.7,1.7,0,0,0-1,3.1c13.7,9.9,35.4,15.5,58.9,20.1m5-112.2a5,5,0,1,0-5-5A5,5,0,0,0,126.8,137.8Zm32,.7a5,5,0,1,0-5-5A5,5,0,0,0,158.8,138.4Zm-17.5,10.4c3.6,0,6.5-1.9,6.5-4.2s-2.9-4.2-6.5-4.2-6.5,1.9-6.5,4.2S137.8,148.9,141.4,148.9Zm0,11q10.3,6.2,14-2"/>
  </symbol>

  <symbol id="firecracker" viewBox="0 0 250 250">
    <title>firecreaker</title><path
      d="M0,125A125,125,0,1,1,125,250,125,125,0,0,1,0,125ZM221.41,56.53c-23.4.08-46.84,7-66.06,20.37s-34,33.14-40.64,55.58c-3.55,12-4.85,24.93-10.85,36-5.66,10.42-15.23,18.42-26,23.39s-22.7,7-34.56,7.41M172.65,70.94l6.27-2.86-14-30.7-6.27,2.86Zm-11-1.11-6.52,3.76,17.94,31.07,6.52-3.76Zm31-13.3-7.16,2.31,11,34.15,7.16-2.31Zm-62.9-2.61-5.93,4.63,22.08,28.28,5.93-4.63Zm6.62,36.54-5,5.58,26.63,24,5-5.58Zm-33.26-8-4.28,6.19L128.35,109l4.28-6.19Zm15.61,33.19-3.76,6.52L146,140.11l3.76-6.52Zm-36,8.57L81,131.56l35,8,1.67-7.34ZM108,148.28l-2.36,7.15,34.08,11.23,2.36-7.15ZM97.64,173.15l-4.59,6L121.49,201l4.59-6ZM76.21,150l-2.79,7,33.33,13.28,2.79-7Z"
      transform="translate(0.5 0.5)"
      fill="none"
      stroke="#231f20"
      stroke-miterlimit="10"/>
  </symbol>

  <symbol id="coin2" viewBox="0 0 249.1 249.1">
    <title>coin2</title>
    <g id="Layer_2" data-name="Layer 2"><path d="M125,.4A124.6,124.6,0,1,0,249.6,125,124.6,124.6,0,0,0,125,.4Zm0,169.8L79.7,125,125,79.7,170.3,125Z" transform="translate(-0.4 -0.4)"/></g>
  </symbol>

  <symbol id="fish" viewBox="0 0 250 250">
    <title>fish</title><path
      d="M0,125A125,125,0,1,1,125,250,125,125,0,0,1,0,125Zm135.8,73.2-3.2,10.1c-.1,4.6-.8-.3,1.6,21.2,6.2,26.9,45.1,9.2,55.4-13.6,2.7-5.2,5.3-10.3,7.7-15.2,5-10.5,9-20.3,11-28.8a89.4,89.4,0,0,0,2.2-27.6c-.2-15-5-32.3-11.7-50.7l-12-20.9-8.9-9.5L163,51.5c-5-10.4-17.7-18.9-33.6-26.6-.5,8.2.4,16,3.5,23.1-8,2.1-22.8,12.4-22.8,14.6s32.7-1.7,34.2,1.6c12.5,12.6,15.9,36.9,17.4,59.2C158.3,143.9,146.3,169.7,135.8,198.2Zm85.5,5.6c-6.2-2.5-13.6-4-23.9-3l-7.7,15.2Q208.5,216.2,221.3,203.8Zm-98.9-33.1,20.3,9.6Zm20.3,9.6-20.3-9.6c-.3,4.2-.3,8.1,1,11.2,2.8,8.4,7.1,13.5,12.4,16.4m-1.9,19.4a1.5,1.5,0,1,0,1.5,1.5A1.5,1.5,0,0,0,133.9,217.6Zm40.4,14a1.6,1.6,0,1,0,1.6,1.6A1.6,1.6,0,0,0,174.3,231.6ZM155.3,45l-24.9-18m1.1,3.6,22.4,18.2M131.5,33.3l19.1,16M131.3,36l17.3,14.6m-16.1-9.3,13.5,9.6m-12-4.8,11.6,7.7m-10.9-3.8,8,3.8m2,3.3-13.1-5.2m-1.8,2.6,12.9,4.6M125,54.5l13.6,5.7m-17.8-2.9,11,1.8m-14.5.7,29.3,2.4M206.2,202l-2.4,1.1m5.9-.5-8.2,5.6m0,3,11.3-8.6m-75.9-20.1-1.5-3.5m-3-1.3,1.5,4.2m-2.3.9-2.6-5.7m-4-.5,5.3,11.2"/>
  </symbol>

  <symbol version="1.1" id="redbag" xmlns="http://www.w3.org/2000/svg" xmlns:xlink="http://www.w3.org/1999/xlink" x="0px" y="0px"
  	 viewBox="0 0 250 250" style="enable-background:new 0 0 250 250;" xml:space="preserve">
    <title>Red Bag Symbol</title>
    <g>
    	<circle class="st0" cx="125" cy="125" r="120"/>
    </g>
    <rect x="67" y="49" class="st1" width="116" height="166" fill="#f9f9f9"/>
    <path class="st0" d="M66.5,48.5c0,22.1,25.9,40,58,40"/>
    <path class="st0" d="M182.6,48.4C183,70,157,87.9,124.4,88.6"/>
    <rect x="93.7" y="111.9" class="st0" transform="matrix(0.7071 -0.7071 0.7071 0.7071 -64.5935 130.2353)" width="62.5" height="62.5"/>
    <rect x="111" y="123" class="st1" width="26" height="3" fill="#f9f9f9"/>
    <rect x="114" y="129" class="st1" width="20" height="3" fill="#f9f9f9"/>
    <rect x="111" y="135" class="st1" width="26" height="3" fill="#f9f9f9"/>
    <rect x="97.8" y="134.9" transform="matrix(0.5 -0.866 0.866 0.5 -58.9106 171.4585)" class="st1" width="42.5" height="3.8" fill="#f9f9f9"/>
    <rect x="118" y="142" transform="matrix(0.8011 0.5986 -0.5986 0.8011 111.9536 -49.8662)" class="st1" width="26" height="3" fill="#f9f9f9"/>
    <rect x="106" y="155" transform="matrix(6.123234e-17 -1 1 6.123234e-17 -40 273)" class="st1" width="21" height="3" fill="#f9f9f9"/>
    <rect x="120" y="154" transform="matrix(6.123234e-17 -1 1 6.123234e-17 -24 287)" class="st1" width="23" height="3" fill="#f9f9f9"/>
    <rect x="114" y="145" class="st1" width="20" height="3" fill="#f9f9f9"/>
    <rect x="116" y="164" class="st1" width="17" height="3" fill="#f9f9f9"/>
    <rect x="116" y="155" class="st1" width="17" height="3" fill="#f9f9f9"/>
  </symbol>

</svg>
