<svg id="Layer_3" data-name="Layer 3" xmlns="http://www.w3.org/2000/svg" viewBox="0 0 250 250"><title>dog</title><path d="M0,125A125,125,0,1,1,125,250,125,125,0,0,1,0,125Zm100.6-24.2c-7.5,11.3-10,25.1-8.8,40.7v.4c4,13.9,11,25.3,22.8,32.7h.2c16.7,8.3,33.6,9.6,50.8,3l.3-.2c16.9-10.6,28.1-24.9,29.4-45.7a2.1,2.1,0,0,0,0-.3,67.7,67.7,0,0,0-9.9-32.4,1.7,1.7,0,0,1-.3-.9c.1-9.2-1.6-17.6-7.7-24a1.7,1.7,0,0,0-1.8-.4c-5.2,1.9-10,5.6-14.6,10.4a1.7,1.7,0,0,1-1.2.5H126.3a1.6,1.6,0,0,1-1.4-.9c-1.9-3.4-16.3-12.3-17.6-10.4-6.1,7-7.9,15.9-6.5,26.1A1.7,1.7,0,0,1,100.6,100.8Zm3.6,66.1c-14.6,19-25.7,38.5-32.9,58.7a1.8,1.8,0,0,0,.6,2c32.4,24.6,65,29.5,97.8,11.9a1.8,1.8,0,0,0,.9-1.2c4.6-22.5,5-43.8-4.9-60.7M70.9,226.8H64a1.7,1.7,0,0,0-1,3.1c13.7,9.9,35.4,15.5,58.9,20.1m5-112.2a5,5,0,1,0-5-5A5,5,0,0,0,126.8,137.8Zm32,.7a5,5,0,1,0-5-5A5,5,0,0,0,158.8,138.4Zm-17.5,10.4c3.6,0,6.5-1.9,6.5-4.2s-2.9-4.2-6.5-4.2-6.5,1.9-6.5,4.2S137.8,148.9,141.4,148.9Zm0,11q10.3,6.2,14-2"/></svg>