<svg id="firecreacker" xmlns="http://www.w3.org/2000/svg" viewBox="0 0 251 251"><title>firecreaker</title><path d="M0,125A125,125,0,1,1,125,250,125,125,0,0,1,0,125ZM221.41,56.53c-23.4.08-46.84,7-66.06,20.37s-34,33.14-40.64,55.58c-3.55,12-4.85,24.93-10.85,36-5.66,10.42-15.23,18.42-26,23.39s-22.7,7-34.56,7.41M172.65,70.94l6.27-2.86-14-30.7-6.27,2.86Zm-11-1.11-6.52,3.76,17.94,31.07,6.52-3.76Zm31-13.3-7.16,2.31,11,34.15,7.16-2.31Zm-62.9-2.61-5.93,4.63,22.08,28.28,5.93-4.63Zm6.62,36.54-5,5.58,26.63,24,5-5.58Zm-33.26-8-4.28,6.19L128.35,109l4.28-6.19Zm15.61,33.19-3.76,6.52L146,140.11l3.76-6.52Zm-36,8.57L81,131.56l35,8,1.67-7.34ZM108,148.28l-2.36,7.15,34.08,11.23,2.36-7.15ZM97.64,173.15l-4.59,6L121.49,201l4.59-6ZM76.21,150l-2.79,7,33.33,13.28,2.79-7Z" transform="translate(0.5 0.5)" fill="none" stroke="#231f20" stroke-miterlimit="10"/></svg>