<svg id="fish" xmlns="http://www.w3.org/2000/svg" viewBox="0 0 250 250"><title>fish</title><path d="M0,125A125,125,0,1,1,125,250,125,125,0,0,1,0,125Zm135.8,73.2-3.2,10.1c-.1,4.6-.8-.3,1.6,21.2,6.2,26.9,45.1,9.2,55.4-13.6,2.7-5.2,5.3-10.3,7.7-15.2,5-10.5,9-20.3,11-28.8a89.4,89.4,0,0,0,2.2-27.6c-.2-15-5-32.3-11.7-50.7l-12-20.9-8.9-9.5L163,51.5c-5-10.4-17.7-18.9-33.6-26.6-.5,8.2.4,16,3.5,23.1-8,2.1-22.8,12.4-22.8,14.6s32.7-1.7,34.2,1.6c12.5,12.6,15.9,36.9,17.4,59.2C158.3,143.9,146.3,169.7,135.8,198.2Zm85.5,5.6c-6.2-2.5-13.6-4-23.9-3l-7.7,15.2Q208.5,216.2,221.3,203.8Zm-98.9-33.1,20.3,9.6Zm20.3,9.6-20.3-9.6c-.3,4.2-.3,8.1,1,11.2,2.8,8.4,7.1,13.5,12.4,16.4m-1.9,19.4a1.5,1.5,0,1,0,1.5,1.5A1.5,1.5,0,0,0,133.9,217.6Zm40.4,14a1.6,1.6,0,1,0,1.6,1.6A1.6,1.6,0,0,0,174.3,231.6ZM155.3,45l-24.9-18m1.1,3.6,22.4,18.2M131.5,33.3l19.1,16M131.3,36l17.3,14.6m-16.1-9.3,13.5,9.6m-12-4.8,11.6,7.7m-10.9-3.8,8,3.8m2,3.3-13.1-5.2m-1.8,2.6,12.9,4.6M125,54.5l13.6,5.7m-17.8-2.9,11,1.8m-14.5.7,29.3,2.4M206.2,202l-2.4,1.1m5.9-.5-8.2,5.6m0,3,11.3-8.6m-75.9-20.1-1.5-3.5m-3-1.3,1.5,4.2m-2.3.9-2.6-5.7m-4-.5,5.3,11.2"/></svg>