<?xml version="1.0" encoding="utf-8"?>
<!-- Generator: Adobe Illustrator 21.1.0, SVG Export Plug-In . SVG Version: 6.00 Build 0)  -->
<svg version="1.1" id="redbag" xmlns="http://www.w3.org/2000/svg" xmlns:xlink="http://www.w3.org/1999/xlink" x="0px" y="0px"
	 viewBox="0 0 250 250" style="enable-background:new 0 0 250 250;" xml:space="preserve">
<title>Red Bag Symbol</title>
<style type="text/css">
	.st0{fill:#020202;}
	.st1{fill:#FFFFFF;}
	.st2{fill:none;stroke:#000000;stroke-width:3;stroke-miterlimit:10;}
</style>
<g>
	<circle class="st0" cx="125" cy="125" r="120"/>
</g>
<rect x="67" y="49" class="st1" width="116" height="166"/>
<path class="st2" d="M66.5,48.5c0,22.1,25.9,40,58,40"/>
<path class="st2" d="M182.6,48.4C183,70,157,87.9,124.4,88.6"/>
<rect x="93.7" y="111.9" transform="matrix(0.7071 -0.7071 0.7071 0.7071 -64.5935 130.2353)" width="62.5" height="62.5"/>
<rect x="111" y="123" class="st1" width="26" height="3"/>
<rect x="114" y="129" class="st1" width="20" height="3"/>
<rect x="111" y="135" class="st1" width="26" height="3"/>
<rect x="97.8" y="134.9" transform="matrix(0.5 -0.866 0.866 0.5 -58.9106 171.4585)" class="st1" width="42.5" height="3.8"/>
<rect x="118" y="142" transform="matrix(0.8011 0.5986 -0.5986 0.8011 111.9536 -49.8662)" class="st1" width="26" height="3"/>
<rect x="106" y="155" transform="matrix(6.123234e-17 -1 1 6.123234e-17 -40 273)" class="st1" width="21" height="3"/>
<rect x="120" y="154" transform="matrix(6.123234e-17 -1 1 6.123234e-17 -24 287)" class="st1" width="23" height="3"/>
<rect x="114" y="145" class="st1" width="20" height="3"/>
<rect x="116" y="164" class="st1" width="17" height="3"/>
<rect x="116" y="155" class="st1" width="17" height="3"/>
</svg>
